<?xml version="1.0" encoding="utf-8"?>
<!-- Generator: Adobe Illustrator 22.0.1, SVG Export Plug-In . SVG Version: 6.00 Build 0)  -->
<svg version="1.1" id="calendar" xmlns="http://www.w3.org/2000/svg" xmlns:xlink="http://www.w3.org/1999/xlink" x="0px" y="0px"
	 viewBox="0 0 30 30" style="enable-background:new 0 0 30 30;" xml:space="preserve">
<style type="text/css">
	.st0{fill:#E75200;}
</style>
<path id="Path_1" class="st0" d="M26.4,5.2h-1.8v1.6c0,1.1-0.9,2.1-2.1,2.1c-1.1,0-2.1-0.9-2.1-2.1V5.2h-3.4v1.6
	c0,1.1-0.9,2.1-2.1,2.1c-1.1,0-2.1-0.9-2.1-2.1V5.2H9.6v1.6c0,1.1-0.9,2.1-2.1,2.1C6.3,8.9,5.4,8,5.4,6.8V5.2H3.6
	c-1.1,0-2.1,0.9-2.1,2.1c0,0,0,0,0,0V25c0,1.1,0.9,2.1,2.1,2.1h22.8c1.1,0,2.1-0.9,2.1-2.1c0,0,0,0,0,0V7.3
	C28.5,6.2,27.5,5.2,26.4,5.2C26.4,5.2,26.4,5.2,26.4,5.2z M24.3,11.8v3h-3.9v-3H24.3z M10.5,15.7h4v2.9h-4L10.5,15.7L10.5,15.7z
	 M9.6,18.6H5.7v-2.9h3.9L9.6,18.6L9.6,18.6z M14.5,19.5V23h-4v-3.5L14.5,19.5z M15.5,19.5h4V23h-4L15.5,19.5z M15.5,18.6v-2.9h4v2.9
	L15.5,18.6z M20.4,15.7h3.9v2.9h-3.9L20.4,15.7z M19.5,11.8v3h-4v-3H19.5z M14.5,11.8v3h-4v-3H14.5z M9.6,11.8v3H5.7v-3H9.6z
	 M5.7,19.5h3.9V23H5.7V19.5z M20.4,23v-3.5h3.9V23H20.4z M6.3,6.8V4.1c0-0.7,0.6-1.2,1.2-1.2c0.6,0,1.1,0.5,1.2,1.2v2.8
	C8.7,7.5,8.1,8,7.5,8C6.8,8,6.3,7.5,6.3,6.8z M13.8,6.8V4.1c0-0.7,0.6-1.2,1.2-1.2c0.6,0,1.1,0.5,1.2,1.2v2.8C16.2,7.5,15.6,8,15,8
	C14.3,8,13.8,7.5,13.8,6.8z M21.3,6.8V4.1c0-0.7,0.6-1.2,1.2-1.2c0.6,0,1.1,0.5,1.2,1.2v2.8c0,0.7-0.6,1.2-1.2,1.2
	C21.8,8,21.3,7.5,21.3,6.8z"/>
</svg>
