<?xml version="1.0" encoding="utf-8"?>
<!-- Generator: Adobe Illustrator 22.0.1, SVG Export Plug-In . SVG Version: 6.00 Build 0)  -->
<svg version="1.1" id="Layer_1" xmlns="http://www.w3.org/2000/svg" xmlns:xlink="http://www.w3.org/1999/xlink" x="0px" y="0px"
	 viewBox="0 0 30 30" style="enable-background:new 0 0 30 30;" xml:space="preserve">
<style type="text/css">
	.st0{fill:#E75200;}
</style>
<g id="manual-transmission">
	<path id="Path_5" class="st0" d="M28.2,26.9c1.1-0.7,1.4-2.2,0.6-3.3c-0.4-0.7-1.2-1-2-1h-2.1c-0.5,0-0.9,0.4-0.9,0.9v0v4.9
		c0,0.5,0.4,0.9,0.9,0.9s0.9-0.4,0.9-0.9v-1.1h0.5l1.5,1.7c0.3,0.4,0.9,0.4,1.2,0c0.3-0.3,0.4-0.9,0.1-1.2L28.2,26.9z M26.9,25.6
		h-1.2v-1.2h1.2c0.3,0,0.6,0.3,0.6,0.6C27.5,25.3,27.3,25.6,26.9,25.6z"/>
	<path id="Path_6" class="st0" d="M3.7,26.5l0.8-0.1c1.1-0.2,1.8-1.3,1.6-2.4c-0.2-1-1-1.7-2-1.7H1.6c-0.5,0-0.9,0.4-0.9,0.9
		s0.4,0.9,0.9,0.9h2.5c0.2,0,0.3,0.1,0.3,0.3c0,0.1-0.1,0.3-0.2,0.3l-0.8,0.1c-1.5,0.3-2.7,1.6-2.6,3.2c0,0.5,0.4,0.9,0.9,0.9
		c0,0,0,0,0,0h3.6c0.5,0,0.9-0.4,0.9-0.9s-0.4-0.9-0.9-0.9H2.8C3,26.8,3.3,26.6,3.7,26.5z"/>
	<path id="Path_7" class="st0" d="M2.1,2.5h0.4v3.9c0,0.5,0.4,0.9,0.9,0.9c0.5,0,0.9-0.4,0.9-0.9V1.6c0-0.5-0.4-0.9-0.9-0.9
		c0,0,0,0,0,0H2.1c-0.5,0-0.9,0.4-0.9,0.9S1.6,2.5,2.1,2.5L2.1,2.5z"/>
	<path id="Path_8" class="st0" d="M15.7,5.5h-2.4c-0.5,0-0.9,0.4-0.9,0.9s0.4,0.9,0.9,0.9h2.4c1.1,0,2.1-0.9,2.1-2.1
		c0-0.4-0.1-0.8-0.4-1.2c0.7-0.9,0.4-2.2-0.5-2.9c-0.3-0.2-0.8-0.4-1.2-0.4h-2.4c-0.5,0-0.9,0.4-0.9,0.9s0.4,0.9,0.9,0.9h2.4
		c0.2,0,0.3,0.1,0.3,0.3c0,0.2-0.1,0.3-0.3,0.3c0,0,0,0,0,0h-1.5c-0.5,0-0.9,0.4-0.9,0.9s0.4,0.9,0.9,0.9l0,0h1.5
		C15.8,4.9,16,5,16,5.2C16,5.3,15.9,5.5,15.7,5.5C15.7,5.5,15.7,5.5,15.7,5.5L15.7,5.5z"/>
	<path id="Path_9" class="st0" d="M17.1,25.1h-0.5v-1.7c0-0.5-0.4-0.9-0.9-0.9s-0.9,0.4-0.9,0.9v1.7h-1.1v-1.7
		c0-0.5-0.4-0.9-0.9-0.9S12,22.9,12,23.4v2.6c0,0.5,0.4,0.9,0.9,0.9h0h2v1.3c0,0.5,0.4,0.9,0.9,0.9s0.9-0.4,0.9-0.9v-1.3h0.5
		c0.5,0,0.9-0.4,0.9-0.9S17.6,25.1,17.1,25.1L17.1,25.1z"/>
	<path id="Path_10" class="st0" d="M25,4.9h2c0.2,0,0.3,0.2,0.3,0.3c0,0.2-0.1,0.3-0.3,0.3h-2c-0.5,0-0.9,0.4-0.9,0.9
		s0.4,0.9,0.9,0.9h2c1.1,0,2.1-0.9,2.1-2s-0.9-2.1-2-2.1c0,0-0.1,0-0.1,0h-1l0.1-0.6h2.1c0.5,0,0.9-0.4,0.9-0.9s-0.4-0.9-0.9-0.9
		l0,0h-2.9c-0.4,0-0.8,0.3-0.9,0.8l-0.3,2.4C24.1,4.4,24.5,4.8,25,4.9C25,4.9,25,4.9,25,4.9L25,4.9z"/>
	<path id="Path_11" class="st0" d="M15.9,9.3c0-0.5-0.4-0.9-0.9-0.9s-0.9,0.4-0.9,0.9v2.1c0.6-0.1,1.2-0.1,1.8,0V9.3z"/>
	<path id="Path_12" class="st0" d="M14.1,20.7c0,0.5,0.4,0.9,0.9,0.9s0.9-0.4,0.9-0.9v-2.1c-0.6,0.1-1.2,0.1-1.8,0V20.7z"/>
	<path id="Path_13" class="st0" d="M4.3,14.1V9.2c0-0.5-0.4-0.9-0.9-0.9c-0.5,0-0.9,0.4-0.9,0.9v11.5c0,0.5,0.4,0.9,0.9,0.9
		c0.5,0,0.9-0.4,0.9-0.9v-4.9h7.1c-0.1-0.6-0.1-1.2,0-1.8L4.3,14.1L4.3,14.1z"/>
	<path id="Path_14" class="st0" d="M25.7,15.9v4.9c0,0.5,0.4,0.9,0.9,0.9s0.9-0.4,0.9-0.9V9.2c0-0.5-0.4-0.9-0.9-0.9
		s-0.9,0.4-0.9,0.9v4.9h-7.1c0.1,0.6,0.1,1.2,0,1.8L25.7,15.9L25.7,15.9z"/>
	<path id="Path_15" class="st0" d="M17,15c0-1.1-0.9-2-2-2c-1.1,0-2,0.9-2,2c0,1.1,0.9,2,2,2S17,16.1,17,15C17,15,17,15,17,15z"/>
</g>
</svg>
