<?xml version="1.0" encoding="utf-8"?>
<!-- Generator: Adobe Illustrator 22.0.1, SVG Export Plug-In . SVG Version: 6.00 Build 0)  -->
<svg version="1.1" id="speedometer" xmlns="http://www.w3.org/2000/svg" xmlns:xlink="http://www.w3.org/1999/xlink" x="0px"
	 y="0px" viewBox="0 0 30 30" style="enable-background:new 0 0 30 30;" xml:space="preserve">
<style type="text/css">
	.st0{fill:#E75200;}
</style>
<path id="Path_16" class="st0" d="M15,20.5c-1.1,0-2,0.9-2,2h4C17,21.4,16.1,20.5,15,20.5z"/>
<path id="Path_17" class="st0" d="M23.5,18.6c-0.4,0.2-1,0.1-1.2-0.3c-0.2-0.4-0.1-0.9,0.3-1.2l0.9-0.5c-0.7-1-1.6-1.9-2.6-2.6
	l-0.5,0.9c-0.3,0.4-0.8,0.5-1.2,0.2c-0.4-0.2-0.5-0.7-0.3-1.1l0.5-0.9c-1.1-0.5-2.3-0.8-3.5-0.9v1.1c0,0.5-0.4,0.9-0.9,0.9
	c-0.5,0-0.9-0.4-0.9-0.9c0,0,0,0,0,0v-1.1c-1.2,0.1-2.4,0.4-3.5,0.9l0.5,0.9c0.2,0.4,0.1,1-0.3,1.2c-0.4,0.2-1,0.1-1.2-0.3L9.1,14
	c-1,0.7-1.9,1.6-2.6,2.6l0.9,0.5c0.4,0.2,0.6,0.8,0.3,1.2c-0.2,0.4-0.8,0.6-1.2,0.3c0,0,0,0,0,0l-0.9-0.5c-0.7,1.4-1,2.9-1,4.4h6.6
	c0-2.1,1.7-3.8,3.8-3.8c0.7,0,1.4,0.2,2,0.6l1.9-1.9c0.4-0.3,0.9-0.3,1.2,0.1c0.3,0.3,0.3,0.9,0,1.2l-1.9,1.9c0.4,0.6,0.6,1.3,0.6,2
	h6.6c0-1.5-0.3-3-1-4.4L23.5,18.6z"/>
<path id="Path_18" class="st0" d="M30,21.6C29.5,13.3,22.3,7,14.1,7.5C6.5,8,0.5,14,0,21.6c0,0.5,0.3,0.9,0.8,0.9c0,0,0,0,0.1,0h2
	c0-6.7,5.4-12.1,12.1-12.1s12.1,5.4,12.1,12.1h2C29.6,22.5,30,22.1,30,21.6C30,21.6,30,21.6,30,21.6z"/>
</svg>
