<svg xmlns="http://www.w3.org/2000/svg" width="26.925" height="26.848" viewBox="0 0 26.925 26.848">
    <defs>
        <style>
            .cls-1{fill:#e75200}
        </style>
    </defs>
    <g id="fuel">
        <path id="Path_2" d="M.768 2.681l7.179 2.114a1.688 1.688 0 0 1 .608.325l2.182 1.812 1.837-1.964-3.009-2.452a.738.738 0 0 0-.258-.136L1.53.093A.74.74 0 0 0 .612.6L.268 1.765a.74.74 0 0 0 .5.917zm0 0" class="cls-1" data-name="Path 2" transform="translate(-.224 -.063)"/>
        <path id="Path_3" d="M214.142 105.857a.475.475 0 0 1 .158.279l3.349 17.362a1.959 1.959 0 0 0 2.714 1.425l4.995-2.206a.475.475 0 0 1 .633.258.633.633 0 0 0 .836.352l2.434-1a.633.633 0 0 0 .35-.836l-4.542-11.085a.475.475 0 0 1 .082-.5l.521-.6a.74.74 0 0 0-.074-1.042l-5.068-4.391a.74.74 0 0 0-1.044.078l-1.129 1.3a.475.475 0 0 1-.673.055l-1.856-1.547-1.842 1.975zm6.152 17.518a1.091 1.091 0 0 1-1.519-.835l-1.124-7.43a2.294 2.294 0 0 1 .355-1.614l1.253.99a3.148 3.148 0 0 1 1.053 1.495l2.163 6.429zm-.77-10.884l.721-.13a2.322 2.322 0 0 1 2.6 1.538l2.307 6.854a.475.475 0 0 1-.261.594l-1.527.675-2.136-6.334a4.093 4.093 0 0 0-1.373-1.948l-1.158-.917a2.322 2.322 0 0 1 .835-.317zm-2.619-3.37l.681 2.884a.475.475 0 0 1-.358.576.455.455 0 0 1-.111.013.475.475 0 0 1-.475-.371l-.681-2.884a.481.481 0 0 1 .936-.222zm-1.346-2.879a.475.475 0 0 1 .584.347l.241.942a.475.475 0 0 1-.347.584.46.46 0 0 1-.119.014.475.475 0 0 1-.466-.361l-.239-.941a.475.475 0 0 1 .347-.586zm0 0" class="cls-1" data-name="Path 3" transform="translate(-202.737 -98.242)"/>
        <path id="Path_4" d="M2.406 152.118a2.325 2.325 0 0 0 2.4-2.4 11.063 11.063 0 0 0-2.4-4.565A11.06 11.06 0 0 0 0 149.714a2.325 2.325 0 0 0 2.4 2.4zm0 0" class="cls-1" data-name="Path 4" transform="translate(.001 -137.523)"/>
    </g>
</svg>
